<?xml version="1.0" encoding="UTF-8" standalone="no"?>
<svg width="25px" height="23px" viewBox="0 0 25 23" version="1.1" xmlns="http://www.w3.org/2000/svg" xmlns:xlink="http://www.w3.org/1999/xlink" xmlns:sketch="http://www.bohemiancoding.com/sketch/ns">
    <!-- Generator: Sketch 3.3.2 (12043) - http://www.bohemiancoding.com/sketch -->
    <title>Rectangle 113</title>
    <desc>Created with Sketch.</desc>
    <defs></defs>
    <g id="navigation" stroke="none" stroke-width="1" fill="none" fill-rule="evenodd" sketch:type="MSPage">
        <g id="Desktop-Copy-3" sketch:type="MSArtboardGroup" transform="translate(-45.000000, -26.000000)" fill="#2BA7FF">
            <g id="Group" sketch:type="MSLayerGroup">
                <g id="Rectangle-113-+-Event-List" transform="translate(45.000000, 26.000000)" sketch:type="MSShapeGroup">
                    <path d="M7.50965408,13.8535841 L21.9244232,13.8535841 C23.3227396,13.8535841 24.4700255,12.7125443 24.4700255,11.3050003 C24.4700255,9.88764322 23.3303205,8.75641654 21.9244232,8.75641654 L7.50965408,8.75641654 L7.50965408,8.75641654 L12.6414687,3.62460191 C13.4671003,2.79897036 13.4664119,1.4549304 12.6370087,0.625527178 C11.801823,-0.209658495 10.4648739,-0.205872876 9.63793393,0.621067138 L0.618409524,9.64059155 C0.163414399,10.0955867 -0.0406296021,10.708021 0.00667834685,11.3050003 C-0.0406296021,11.9019796 0.163414399,12.5144139 0.618409524,12.9694091 L9.63793393,21.9889335 C10.4648739,22.8158735 11.801823,22.8196591 12.6370087,21.9844734 C13.4664119,21.1550702 13.4671003,19.8110303 12.6414687,18.9853987 L7.50965408,13.8535841 Z" id="Rectangle-113"></path>
                </g>
            </g>
        </g>
    </g>
</svg>