<?xml version="1.0" encoding="UTF-8" standalone="no"?>
<svg width="295px" height="100px" viewBox="0 0 295 100" version="1.1" xmlns="http://www.w3.org/2000/svg" xmlns:xlink="http://www.w3.org/1999/xlink" xmlns:sketch="http://www.bohemiancoding.com/sketch/ns">
    <!-- Generator: Sketch 3.3.2 (12043) - http://www.bohemiancoding.com/sketch -->
    <title>Avenue-wordmark</title>
    <desc>Created with Sketch.</desc>
    <defs></defs>
    <g id="navigation" stroke="none" stroke-width="1" fill="none" fill-rule="evenodd" sketch:type="MSPage">
        <g id="Avenue-wordmark" sketch:type="MSLayerGroup" fill="#ffffff">
            <g id="Avenue-wrodmark-Copy" transform="translate(100.000000, 51.000000)" sketch:type="MSShapeGroup">
                <g id="Imported-Layers-Copy-5">
                    <path d="M46.9963116,44.5567058 C46.9494093,42.3868005 45.1073195,40.7887461 42.7110003,40.7887461 L24.4511342,40.7887461 C19.5154436,40.7887461 16.3268656,39.0991345 14.5211252,37.7135691 C13.8336149,37.1863523 13.1754186,36.397053 12.5086235,35.340712 C12.462112,35.2667032 12.4124737,35.1717126 12.3604903,35.0824444 C12.270985,34.9290861 12.1787437,34.7658091 12.0853298,34.6380105 L12.0732134,34.6193176 L12.0630512,34.6010062 C11.9641654,34.4308624 11.8684065,34.2687299 11.776556,34.1127012 C11.1093701,32.9854033 10.5828913,32.0946282 10.2784168,30.4786438 L10.27529,30.4603324 L10.2733358,30.4420209 C10.2330779,29.9823276 10.3542423,29.5993133 10.6329204,29.3025154 C11.016738,28.894323 11.6776703,28.7615651 12.5969563,28.7615651 C13.2242752,28.7615651 13.7831949,28.9626094 13.9391452,28.9626094 L31.8601419,28.9626094 C35.9058604,28.9626094 38.9021388,27.802885 41.2898592,25.4723731 C43.3590345,23.4527741 44.0782038,20.1307742 43.3152589,16.1865668 C42.6734785,12.8687633 40.9842122,9.32473713 39.0119684,7.18611383 C36.9807059,4.98378198 34.6785822,3.3620753 32.1696974,2.38508381 C29.4747666,1.33637252 26.4010993,0.8 23.0350741,0.8 C16.2959882,0.8 10.8713407,2.95693474 6.91121904,7.21548842 C2.90419502,11.5846737 0.871759891,17.4138146 0.871759891,24.5411602 C0.871759891,31.7871486 2.96399551,37.6105672 7.09022967,41.8515724 C9.70151795,44.5738728 12.2514423,46.2219022 15.3598955,47.1973677 L15.4173509,47.2145347 L15.4771514,47.2320832 C15.552586,47.2553539 15.6276298,47.2793877 15.7022827,47.3034215 C15.8418171,47.3480556 15.9809608,47.3926897 16.1263581,47.431983 C16.373768,47.498362 16.6243047,47.5731337 16.8775774,47.6482869 C17.5326468,47.8436089 18.2099949,48.0450347 18.8834345,48.1167545 C19.1750107,48.1533774 19.466587,48.2880427 19.7655895,48.3284805 C21.0679114,48.5047281 22.5441628,48.8 24.1517408,48.8 L28.8118801,48.8 L28.7868655,48.670294 L29.5419933,48.6187931 L42.9013457,48.5417324 C45.2812491,48.4929019 47.0443865,46.7769676 46.9963116,44.5567058 L46.9963116,44.5567058 Z M11.316913,16.4017262 C11.3649879,16.0419828 11.441986,15.7367922 11.5522065,15.4701319 L11.5623686,15.4430462 L11.5682314,15.4274052 L11.5756576,15.4121456 L11.5924643,15.3774302 C11.7374708,15.0928399 11.8777869,14.8269426 12.0134129,14.5801197 C12.1545108,14.3203262 12.318669,14.0437472 12.5011973,13.7583939 C12.8756344,13.138094 13.309872,12.5650986 13.78554,12.064586 C14.2436196,11.5812403 14.7548552,11.1188765 15.3043944,10.6893207 C16.4155892,9.82143487 17.6557655,9.1595527 18.9901373,8.72236713 C20.2189789,8.25428101 21.6698249,8.01356191 23.2848291,8.01356191 C29.0862588,8.01356191 33.0835115,10.5516034 35.1651941,15.5574927 L35.2003709,15.6410386 L35.2144416,15.6749911 L35.2214769,15.710851 L35.2390653,15.7993562 C35.2750238,15.9771298 35.3117639,16.180463 35.3481133,16.4105005 C35.4165125,16.8526454 35.3668742,17.2913569 35.2003709,17.7159534 C35.0358218,18.1329201 34.748154,18.6986672 34.3100079,19.0397177 C33.6475123,19.6161465 32.6504465,20.0903364 32.6082344,20.1082664 L32.5339723,20.1883789 L14.6489341,20.1883789 C13.8179808,20.1883789 13.1914436,19.7332634 12.7337548,19.4364655 L12.5930478,19.3216375 C12.0087227,18.9538828 11.6659447,18.3045898 11.513512,17.9578169 C11.3239484,17.5271167 11.2465595,16.9091056 11.316913,16.4017262 L11.316913,16.4017262 Z" id="Fill-4"></path>
                    <path d="M193.842906,47.3293627 C194.611713,46.5927088 195.0225,45.6328843 194.999049,44.5567058 C194.952146,42.3868005 193.110056,40.7887461 190.713737,40.7887461 L172.453867,40.7887461 C167.518176,40.7887461 164.329597,39.0991345 162.523856,37.7135691 C161.836346,37.1863523 161.178149,36.397053 160.511354,35.340712 C160.464452,35.2663217 160.414814,35.1713312 160.362439,35.0816814 C160.273325,34.9283231 160.181083,34.7654276 160.08806,34.6380105 L160.075944,34.6193176 L160.065782,34.6010062 C159.966896,34.4308624 159.871137,34.2683484 159.779287,34.1127012 C159.112101,32.9854033 158.585622,32.0946282 158.281147,30.4786438 L158.27802,30.4603324 L158.276066,30.4420209 C158.235808,29.9823276 158.356582,29.5993133 158.635651,29.3025154 C159.019468,28.894323 159.680401,28.7615651 160.599687,28.7615651 C161.227006,28.7615651 161.785926,28.9626094 161.941876,28.9626094 L179.862485,28.9626094 C183.908595,28.9626094 186.904874,27.802885 189.292595,25.4723731 C191.361771,23.4527741 192.08094,20.1307742 191.317995,16.1865668 C190.675824,12.8687633 188.986948,9.32473713 187.014704,7.18611383 C184.983441,4.98378198 182.681317,3.3620753 180.172432,2.38508381 C177.47711,1.33637252 174.403833,0.8 171.037807,0.8 C164.29911,0.8 158.874071,2.95693474 154.913949,7.21548842 C150.906924,11.5846737 148.874488,17.4138146 148.874488,24.5411602 C148.874488,31.7871486 150.966724,37.6105672 155.092959,41.8515724 C157.703857,44.5738728 160.253782,46.2219022 163.362627,47.1973677 L163.419691,47.2145347 L163.479883,47.2320832 C163.555317,47.2553539 163.630361,47.2793877 163.705405,47.3034215 C163.844548,47.3480556 163.983692,47.3926897 164.129089,47.431983 C164.376499,47.498362 164.627036,47.5731337 164.880309,47.6482869 C165.535378,47.8432274 166.212727,48.0450347 166.886166,48.1167545 C167.177743,48.1533774 167.468928,48.2880427 167.767931,48.3284805 C169.070644,48.5047281 170.546504,48.8 172.154474,48.8 L176.816177,48.8 L176.791163,48.670294 L177.544727,48.6187931 L190.904082,48.522658 C192.034429,48.4993872 193.07996,48.0602942 193.842906,47.3293627 L193.842906,47.3293627 Z M159.319643,16.4017262 C159.367718,16.0419828 159.444716,15.7367922 159.554937,15.4701319 L159.564708,15.4438092 L159.570962,15.4274052 L159.595586,15.3766672 C159.740201,15.0928399 159.880517,14.8269426 160.016143,14.5801197 C160.156851,14.3207077 160.321009,14.0441287 160.503537,13.7587754 C160.878756,13.138094 161.312603,12.5650986 161.788271,12.064586 C162.24596,11.5816218 162.757195,11.1188765 163.307126,10.6893207 C164.418321,9.82143487 165.658497,9.15993419 166.992869,8.72236713 C168.221711,8.25428101 169.672557,8.01356191 171.287562,8.01356191 C177.088993,8.01356191 181.086246,10.5516034 183.16832,15.5574927 L183.203106,15.6410386 L183.217176,15.6749911 L183.224212,15.710851 L183.2418,15.7993562 C183.277759,15.9771298 183.314108,16.180463 183.350848,16.4105005 C183.419247,16.8526454 183.369218,17.2909754 183.203106,17.7159534 C183.038557,18.1329201 182.75128,18.6982857 182.312743,19.0397177 C181.650247,19.6161465 180.653181,20.0903364 180.610969,20.1082664 L180.536707,20.1883789 L162.651665,20.1883789 C161.820712,20.1883789 161.194174,19.7332634 160.736095,19.4364655 L160.595778,19.3216375 C160.011453,18.9538828 159.668675,18.3045898 159.516243,17.9578169 C159.326679,17.5274982 159.24929,16.9091056 159.319643,16.4017262 L159.319643,16.4017262 Z" id="Fill-5"></path>
                    <path d="M102.389198,37.5929166 L102.447356,37.7455531 C102.8677,38.8746663 103.485782,39.9875248 104.279141,41.0532047 C105.062472,42.1069909 106.037926,43.1421435 107.168202,44.1305141 C110.776821,47.2284393 115.46197,48.8 121.07003,48.8 C126.71098,48.8 131.425007,47.226457 135.041247,44.1221884 C137.25487,42.1878684 138.854423,40.0462006 139.710753,37.7590326 C140.677784,34.8823312 141.253752,31.5913308 141.253752,27.9899035 L141.253752,5.15430157 C141.253752,4.64524911 141.040371,4.10487644 140.772442,3.50186335 C140.546628,2.99479318 140.1323,2.51626801 139.705138,2.07976741 C139.326106,1.69361702 138.857231,1.37724329 138.310944,1.14016123 C137.790729,0.91457645 137.208745,0.8 136.580636,0.8 C135.980603,0.8 135.43913,0.911404784 134.911293,1.14016123 C134.379045,1.37129642 133.920999,1.68767015 133.536352,2.08016387 C133.146892,2.47860447 132.676011,2.97457381 132.441372,3.50186335 L132.447389,3.55142064 C132.213954,4.07633144 132.028649,4.6186864 132.028649,5.15430157 L132.028649,27.6862165 C132.028649,32.2724461 131.142237,35.5670147 129.399094,37.7586362 C127.500327,40.1461081 124.651776,41.3568918 121.010267,41.3568918 C117.247228,41.3568918 114.302014,40.1128056 112.430521,37.7586362 C110.514106,35.3489626 109.567531,31.8660764 109.567531,27.6870094 L109.567531,27.6862165 L109.567531,5.10395137 C109.567531,4.95805471 109.506164,4.81295097 109.510977,4.66982952 C109.52702,4.20755914 109.474879,3.80792917 109.316046,3.45072023 C109.047315,2.8453284 108.843962,2.42230739 108.488595,2.07104533 C108.053812,1.64088807 107.640688,1.35385225 107.148147,1.14016123 C106.613091,0.908233117 106.091271,0.8 105.504876,0.8 C104.88158,0.8 104.323261,0.911404784 103.796226,1.14016123 C103.265984,1.37010704 102.799915,1.68330911 102.408049,2.07064887 C102.027814,2.44649134 101.716568,2.91074402 101.476314,3.45111669 C101.252104,3.95660103 101.144611,4.51283203 101.144611,5.10395137 L101.144611,27.9899035 C101.144611,32.2407295 101.550516,35.4651249 102.362325,37.5774547 L102.389198,37.5929166" id="Fill-6"></path>
                    <path id="Fill-7" d="M109.968622,28.242 L109.968622,28.242 L109.968622,28.2424 L109.968622,28.242"></path>
                    <path id="Fill-8" d="M140.85266,5.2024 L140.85266,5.2024 C140.85266,5.1112 140.866297,5.022 140.87472,4.932 C140.861885,5.022 140.85266,5.112 140.85266,5.2024"></path>
                    <path id="Fill-9" d="M88.7107776,22.112 L88.7107776,22.1112 L88.7107776,22.112"></path>
                    <path d="M65.5946767,11.8417603 C67.4665703,9.48759086 70.4077735,8.24350469 74.1214789,8.24350469 C77.7505539,8.24350469 80.5541828,9.4538919 82.4525484,11.8413638 C84.2341965,14.0817497 85.100955,17.3767147 85.100955,21.91418 L85.100955,44.4456984 C85.100955,44.9856746 85.3432142,45.5319942 85.5782538,46.0604731 L85.5942974,46.0985331 C85.7952442,46.5504956 86.1329632,47.0159376 86.6271078,47.5210255 C86.98809,47.8897317 87.4786248,48.2144311 88.0445648,48.4598388 C88.5651814,48.68582 89.1347312,48.8 89.7371705,48.8 C90.3664829,48.8 90.9508731,48.68582 91.4714898,48.4598388 C92.0073479,48.2275142 92.4762237,47.9111405 92.8596671,47.5198361 C93.1797381,47.1931545 93.3598281,46.7923351 93.5619782,46.3280825 L93.6734816,46.0981366 C93.8644011,45.6687723 93.8840546,45.1934188 93.8812469,44.6427382 L93.9249659,44.4456984 L93.9249659,21.6100965 C93.9249659,17.4682966 93.4841664,14.3600634 92.6330505,11.8290736 C91.7378145,9.43724065 90.1791733,7.29359059 88.0918936,5.46988238 C84.4828731,2.37195718 79.8057462,0.8 74.1928731,0.8 C68.6008568,0.8 63.9297462,2.37393947 60.3143083,5.47781155 C59.224543,6.43089732 58.2607203,7.46406766 57.456131,8.54639884 C56.6952606,9.56886481 56.0856016,10.6733976 55.6520218,11.830263 L55.5850396,12.0899432 L55.2994625,12.1264173 C54.362513,14.5019955 53.8158254,17.8560328 53.8158254,21.6097 L53.8158254,21.6104929 L53.8158254,44.4960486 C53.8158254,44.4960486 53.8158254,44.4960486 53.8158254,44.4964451 C53.8158254,44.9476146 54.0528704,45.3868904 54.2698608,45.8523325 C54.3159864,45.9518435 54.3946003,46.0509581 54.4383192,46.1488833 C54.6809795,46.6952029 55.1253888,47.173728 55.4855689,47.5297476 C55.841337,47.8810096 56.3427012,48.2029338 56.9355143,48.4598388 C57.4481091,48.6826483 58.0533561,48.8 58.6862783,48.8 C59.2923274,48.8 59.8442292,48.6889917 60.3720655,48.4598388 C60.9191542,48.2223602 61.3916398,47.9095546 61.7754843,47.530144 C62.0398035,47.2692745 62.1665484,46.9568653 62.3253806,46.5615964 C62.3787258,46.4283864 62.436884,46.2908154 62.5002565,46.1488833 C62.6598909,45.7885027 62.6526712,45.3853046 62.6374297,44.9182767 C62.6330177,44.7791199 62.6398363,44.6383772 62.6398363,44.4960486 L62.6398363,21.91418 C62.6398363,17.7648474 63.6545975,14.2819611 65.5946767,11.8417603" id="Fill-10"></path>
                </g>
            </g>
            <g id="icon-av" sketch:type="MSShapeGroup">
                <path d="M96.9366667,45.6852321 C94.6483333,44.7548523 92.0483333,45.8793249 91.13,48.1966245 L76.27125,83.0097046 L68.8533333,64.27173 C68.8533333,64.27173 68.8308333,64.3919831 68.7983333,64.3877637 C68.0295833,62.9105485 66.5008333,62.0253165 64.7375,62.0253165 L44.8941667,62.0253165 C42.36,62.0253165 40,63.942616 40,66.5088608 L40,66.4253165 C40,68.9915612 42.36,70.8860759 44.8941667,70.8860759 L61.8975,70.8860759 L72.11375,96.7012658 C72.7104167,98.2063291 74.0170833,99.2493671 75.48625,99.5122363 C75.4904167,99.5130802 75.4954167,99.5367089 75.5,99.5375527 C75.625,99.5594937 75.75125,99.5881857 75.87875,99.5991561 C75.9245833,99.6037975 75.9704167,99.6118143 76.01625,99.614346 C76.10125,99.6194093 76.1858333,99.6257384 76.27125,99.6253165 C76.3566667,99.6257384 76.44125,99.6236287 76.5258333,99.6189873 C76.5716667,99.6160338 76.6175,99.614346 76.6633333,99.6101266 C76.7908333,99.5991561 76.9170833,99.5822785 77.0425,99.5603376 C77.0466667,99.5594937 77.0516667,99.5590717 77.05625,99.5582278 C78.525,99.2957806 79.8320833,98.2991561 80.4283333,96.7940928 L99.4166667,51.5649789 C100.335,49.2481013 99.225,46.6151899 96.9366667,45.6852321" id="Fill-1"></path>
                <path d="M56.6679167,56.1181435 L66.2895833,56.1181435 L44.71125,2.83375527 C44.1145833,1.32869198 42.8075,0.407172996 41.33875,0.144725738 C41.3341667,0.143881857 41.3295833,0.181012658 41.325,0.180168776 C41.1995833,0.158227848 41.0733333,0.159915612 40.9458333,0.148523207 C40.9,0.144303797 40.8545833,0.151476793 40.8083333,0.148945148 C40.72375,0.143881857 40.6391667,0.145147679 40.55375,0.14556962 C40.4683333,0.145147679 40.38375,0.151054852 40.29875,0.155696203 C40.2529167,0.158649789 40.2075,0.162025316 40.16125,0.166244726 C40.03375,0.177637131 39.9079167,0.19535865 39.7825,0.217299578 C39.7779167,0.21814346 39.7733333,0.218987342 39.76875,0.219831224 C38.2995833,0.482278481 36.9929167,1.47932489 36.39625,2.98438819 L0.541666667,93.4253165 C-0.376666667,95.742616 0.733333333,98.3751055 3.02166667,99.3054852 C5.31,100.235443 7.90958333,99.1113924 8.82833333,96.7940928 L40.55375,16.6177215 L56.6679167,56.1181435" id="Fill-2"></path>
            </g>
        </g>
    </g>
</svg>