<?xml version="1.0" encoding="UTF-8" standalone="no"?>
<svg width="105px" height="34px" viewBox="0 0 105 34" version="1.1" xmlns="http://www.w3.org/2000/svg" xmlns:xlink="http://www.w3.org/1999/xlink" xmlns:sketch="http://www.bohemiancoding.com/sketch/ns">
    <!-- Generator: Sketch 3.3.2 (12043) - http://www.bohemiancoding.com/sketch -->
    <title>Avenue-wrodmark</title>
    <desc>Created with Sketch.</desc>
    <defs></defs>
    <g id="navigation" stroke="none" stroke-width="1" fill="none" fill-rule="evenodd" sketch:type="MSPage">
        <g id="Desktop-Copy-2" sketch:type="MSArtboardGroup" transform="translate(-598.000000, -35.000000)">
            <g id="Avenue-wrodmark" sketch:type="MSLayerGroup" transform="translate(598.000000, 35.000000)">
                <g id="Imported-Layers-Copy-5" sketch:type="MSShapeGroup">
                    <g id="Fill-1-+-Fill-2" fill="#2BA7FF">
                        <path d="M33.0836883,15.3388167 C32.3026989,15.0264417 31.4153403,15.4039833 31.1019206,16.1820167 L26.0307513,27.8705083 L23.4990772,21.5792333 C23.4990772,21.5792333 23.4913982,21.6196083 23.4803062,21.6181917 C23.2179381,21.1222167 22.6961883,20.825 22.0943771,20.825 L15.3220104,20.825 C14.4571201,20.825 13.6516715,21.4687333 13.6516715,22.33035 L13.6516715,22.3023 C13.6516715,23.1639167 14.4571201,23.8 15.3220104,23.8 L21.1251084,23.8 L24.6118307,32.46745 C24.8154681,32.972775 25.2614227,33.322975 25.7628372,33.4112333 C25.7642593,33.4115167 25.7659657,33.41945 25.76753,33.4197333 C25.8101915,33.4271 25.8532796,33.4367333 25.8967943,33.4404167 C25.9124368,33.441975 25.9280793,33.4446667 25.9437219,33.4455167 C25.9727317,33.4472167 26.0015993,33.4493417 26.0307513,33.4492 C26.0599033,33.4493417 26.0887709,33.4486333 26.1176385,33.447075 C26.133281,33.4460833 26.1489236,33.4455167 26.1645661,33.4441 C26.2080808,33.4404167 26.2511689,33.43475 26.2939726,33.4273833 C26.2953946,33.4271 26.2971011,33.4269583 26.2986653,33.426675 C26.7999377,33.3385583 27.2460345,33.0039417 27.4495297,32.4986167 L33.9300919,17.3129417 C34.2435116,16.53505 33.8646777,15.65105 33.0836883,15.3388167" id="Fill-1"></path>
                        <path d="M19.3402946,18.8416667 L22.6240904,18.8416667 L15.2595825,0.951433333 C15.055945,0.446108333 14.6098482,0.136708333 14.1085759,0.0485916667 C14.1070116,0.0483083333 14.1054474,0.060775 14.1038831,0.0604916667 C14.0610795,0.053125 14.0179914,0.0536916667 13.9744767,0.0498666667 C13.9588341,0.04845 13.9433338,0.0508583333 13.927549,0.0500083333 C13.8986815,0.0483083333 13.8698139,0.0487333333 13.8406618,0.048875 C13.8115098,0.0487333333 13.7826422,0.0507166667 13.7536324,0.052275 C13.7379899,0.0532666667 13.7224896,0.0544 13.7067048,0.0558166667 C13.6631901,0.0596416667 13.6202442,0.0655916667 13.5774406,0.0729583333 C13.5758763,0.0732416667 13.574312,0.073525 13.5727478,0.0738083333 C13.0713333,0.161925 12.6253787,0.496683333 12.4217412,1.00200833 L0.184866385,31.36755 C-0.12855324,32.1455833 0.250280645,33.0294417 1.03127002,33.3418167 C1.81225939,33.65405 2.69947584,33.27665 3.01303767,32.4986167 L13.8406618,5.5794 L19.3402946,18.8416667" id="Fill-2"></path>
                    </g>
                    <path id="Fill-3" fill="#000000" d="M96.1822829,33.7230417 L96.1536997,33.7350833 C96.1585347,33.7331 96.1632274,33.7319667 96.1680624,33.7299833 C96.1728974,33.7278583 96.1773057,33.725025 96.1822829,33.7230417"></path>
                    <path d="M51.7622475,32.0721667 C51.7456186,31.3036585 51.092515,30.7376809 50.2429123,30.7376809 L43.7689699,30.7376809 C42.019046,30.7376809 40.8885519,30.1392768 40.2483358,29.6485557 C40.0045826,29.4618331 39.7712224,29.1822896 39.5348137,28.8081688 C39.5183232,28.7819574 39.5007242,28.7483149 39.4822938,28.7166991 C39.4505601,28.6623847 39.4178564,28.6045574 39.384737,28.5592954 L39.3804412,28.552675 L39.3768383,28.5461897 C39.3417788,28.4859304 39.307828,28.4285085 39.2752629,28.3732483 C39.0387155,27.973997 38.8520551,27.6585141 38.7441052,27.0861863 L38.7429966,27.079701 L38.7423038,27.0732157 C38.7280306,26.9104077 38.7709888,26.7747568 38.8697927,26.6696409 C39.0058732,26.5250727 39.2402034,26.4780543 39.5661316,26.4780543 C39.7885443,26.4780543 39.9867064,26.5492575 40.0419978,26.5492575 L46.3957958,26.5492575 C47.8301846,26.5492575 48.8924998,26.1385218 49.7390539,25.3131321 C50.4726695,24.5978575 50.7276473,23.4213159 50.4571491,22.0244091 C50.2296091,20.8493537 49.6306884,19.5941777 48.9314394,18.8367486 C48.2112656,18.0567561 47.3950594,17.4824017 46.5055471,17.1363838 C45.5500731,16.7649653 44.4603201,16.575 43.266913,16.575 C40.8776045,16.575 38.9543234,17.3389144 37.5502824,18.8471522 C36.1296125,20.3945719 35.409023,22.4590594 35.409023,24.9833276 C35.409023,27.5496151 36.1508145,29.6120759 37.6137497,31.1140986 C38.5395687,32.0782466 39.4436314,32.6619237 40.5457176,33.0074011 L40.5660881,33.013481 L40.5872901,33.0196961 C40.614035,33.0279379 40.6406414,33.0364498 40.6671092,33.0449618 C40.7165804,33.0607697 40.7659131,33.0765776 40.817463,33.090494 C40.9051809,33.1140032 40.9940074,33.1404848 41.0838039,33.1671016 C41.3160555,33.2362781 41.5562058,33.3076165 41.7949704,33.3330172 C41.8983472,33.3459878 42.0017241,33.3936818 42.1077339,33.4080035 C42.5694655,33.4704245 43.0928629,33.575 43.6628215,33.575 L45.3150501,33.575 L45.3061813,33.5290625 L45.573908,33.5108225 L50.3103983,33.4835302 C51.1541809,33.4662361 51.7792923,32.8585094 51.7622475,32.0721667 L51.7622475,32.0721667 Z M39.1122988,22.1006114 C39.1293435,21.9732022 39.1566427,21.8651139 39.1957209,21.7706717 L39.1993238,21.7610789 L39.2014024,21.7555393 L39.2040354,21.7501349 L39.2099941,21.7378399 C39.2614054,21.6370475 39.3111538,21.5428755 39.3592392,21.4554591 C39.4092648,21.3634489 39.4674662,21.2654938 39.5321807,21.1644312 C39.6649355,20.9447416 39.8188922,20.7418058 39.9875379,20.5645409 C40.1499477,20.3933559 40.3312036,20.2296021 40.5260399,20.0774678 C40.9200084,19.7700915 41.3597066,19.5356749 41.8328013,19.3808384 C42.2684808,19.2150579 42.7828708,19.1298032 43.3554624,19.1298032 C45.4123297,19.1298032 46.8295352,20.0286929 47.5675852,21.801612 L47.5800569,21.8312012 L47.5850456,21.843226 L47.58754,21.8559264 L47.5937758,21.887272 C47.6065247,21.9502335 47.6195508,22.0222473 47.6324382,22.1037189 C47.6566888,22.2603119 47.6390898,22.4156889 47.5800569,22.5660668 C47.5217169,22.7137425 47.4197257,22.9141113 47.2643833,23.0349 C47.0294988,23.2390519 46.6759942,23.4069942 46.6610281,23.4133443 L46.6346989,23.4417175 L40.2936498,23.4417175 C39.9990396,23.4417175 39.776904,23.2805308 39.6146328,23.1754149 L39.5647458,23.1347466 C39.3575763,23.0045002 39.2360462,22.7745422 39.1820019,22.6517268 C39.1147931,22.4991872 39.0873553,22.2803083 39.1122988,22.1006114 L39.1122988,22.1006114 Z" id="Fill-4" fill="#2BA7FF"></path>
                    <path d="M103.825958,33.0541493 C104.098535,32.793251 104.244177,32.4533132 104.235863,32.0721667 C104.219234,31.3036585 103.56613,30.7376809 102.716527,30.7376809 L96.2425838,30.7376809 C94.4926596,30.7376809 93.3621653,30.1392768 92.7219491,29.6485557 C92.4781958,29.4618331 92.2448356,29.1822896 92.0084268,28.8081688 C91.9917978,28.7818223 91.9741988,28.7481798 91.9556298,28.7164288 C91.9240347,28.6621144 91.891331,28.6044223 91.8583502,28.5592954 L91.8540543,28.552675 L91.8504514,28.5461897 C91.8153919,28.4859304 91.7814411,28.4283734 91.748876,28.3732483 C91.5123286,27.973997 91.3256681,27.6585141 91.2177183,27.0861863 L91.2166097,27.079701 L91.2159168,27.0732157 C91.2016436,26.9104077 91.2444632,26.7747568 91.3434057,26.6696409 C91.4794863,26.5250727 91.7138165,26.4780543 92.0397448,26.4780543 C92.2621575,26.4780543 92.4603197,26.5492575 92.5156111,26.5492575 L98.8692716,26.5492575 C100.303799,26.5492575 101.366115,26.1385218 102.212669,25.3131321 C102.946285,24.5978575 103.201263,23.4213159 102.930764,22.0244091 C102.703086,20.8493537 102.104303,19.5941777 101.405054,18.8367486 C100.68488,18.0567561 99.868674,17.4824017 98.9791615,17.1363838 C98.0235488,16.7649653 96.9339341,16.575 95.7405268,16.575 C93.3513565,16.575 91.4279364,17.3389144 90.0238952,18.8471522 C88.6032251,20.3945719 87.8826354,22.4590594 87.8826354,24.9833276 C87.8826354,27.5496151 88.624427,29.6120759 90.0873626,31.1140986 C91.0130431,32.0782466 91.9171059,32.6619237 93.0193309,33.0074011 L93.0395629,33.013481 L93.0609034,33.0196961 C93.0876484,33.0279379 93.1142548,33.0364498 93.1408611,33.0449618 C93.1901938,33.0607697 93.2395265,33.0765776 93.2910764,33.090494 C93.3787943,33.1140032 93.4676208,33.1404848 93.5574174,33.1671016 C93.789669,33.236143 94.0298193,33.3076165 94.2685839,33.3330172 C94.3719608,33.3459878 94.4751992,33.3936818 94.581209,33.4080035 C95.0430792,33.4704245 95.5663382,33.575 96.1364354,33.575 L97.7892186,33.575 L97.7803498,33.5290625 L98.0475223,33.5108225 L102.784013,33.4767747 C103.184772,33.468533 103.55546,33.3130209 103.825958,33.0541493 L103.825958,33.0541493 Z M91.5859119,22.1006114 C91.6029566,21.9732022 91.6302558,21.8651139 91.669334,21.7706717 L91.6727983,21.7613491 L91.6750155,21.7555393 L91.6837458,21.7375696 C91.7350185,21.6370475 91.7847669,21.5428755 91.8328524,21.4554591 C91.8827394,21.363584 91.9409408,21.2656289 92.0056553,21.1645663 C92.1386873,20.9447416 92.2925054,20.7418058 92.4611511,20.5645409 C92.6234224,20.3934911 92.8046784,20.2296021 92.9996533,20.0774678 C93.3936218,19.7700915 93.8333201,19.53581 94.3064149,19.3808384 C94.7420945,19.2150579 95.2564846,19.1298032 95.8290762,19.1298032 C97.8859439,19.1298032 99.3031497,20.0286929 100.041338,21.801612 L100.053672,21.8312012 L100.05866,21.843226 L100.061155,21.8559264 L100.06739,21.887272 C100.080139,21.9502335 100.093027,22.0222473 100.106053,22.1037189 C100.130303,22.2603119 100.112566,22.4155538 100.053672,22.5660668 C99.9953315,22.7137425 99.8934789,22.9139762 99.7379979,23.0349 C99.5031134,23.2390519 99.1496087,23.4069942 99.1346426,23.4133443 L99.1083134,23.4417175 L92.7672631,23.4417175 C92.4726528,23.4417175 92.2505172,23.2805308 92.0881074,23.1754149 L92.038359,23.1347466 C91.8311895,23.0045002 91.7096593,22.7745422 91.655615,22.6517268 C91.5884062,22.4993223 91.5609684,22.2803083 91.5859119,22.1006114 L91.5859119,22.1006114 Z" id="Fill-5" fill="#2BA7FF"></path>
                    <path d="M71.4015128,29.6058246 L71.4221325,29.6598834 C71.5711632,30.0597777 71.790301,30.453915 72.0715823,30.8313433 C72.3493085,31.2045593 72.6951508,31.5711758 73.0958843,31.9212237 C74.3753019,33.0184056 76.0363975,33.575 78.0247065,33.575 C80.0246764,33.575 81.6960107,33.0177035 82.9781302,31.9182751 C83.7629591,31.2332034 84.3300723,30.474696 84.6336798,29.6646574 C84.9765358,28.6458256 85.1807421,27.480263 85.1807421,26.2047575 L85.1807421,18.1171485 C85.1807421,17.9368591 85.1050891,17.7454771 85.0100962,17.5319099 C84.9300348,17.3523226 84.7831372,17.1828449 84.6316889,17.028251 C84.4973053,16.8914894 84.3310677,16.7794403 84.1373847,16.6954738 C83.9529449,16.6155792 83.7466056,16.575 83.5239127,16.575 C83.3111741,16.575 83.1191975,16.6144559 82.9320558,16.6954738 C82.7433499,16.7773341 82.5809519,16.8893832 82.4445774,17.0283914 C82.3064964,17.1695057 82.1395479,17.3451616 82.056358,17.5319099 L82.0584911,17.5494615 C81.9757278,17.7353674 81.9100291,17.9274514 81.9100291,18.1171485 L81.9100291,26.0972017 C81.9100291,27.7214913 81.5957563,28.8883177 80.9777337,29.664517 C80.3045357,30.51008 79.2945964,30.9388992 78.003518,30.9388992 C76.6693515,30.9388992 75.6251408,30.4982853 74.9616127,29.664517 C74.2821577,28.8110909 73.9465541,27.5775687 73.9465541,26.0974825 L73.9465541,26.0972017 L73.9465541,18.0993161 C73.9465541,18.0476444 73.9247967,17.9962535 73.9265032,17.9455646 C73.9321914,17.7818439 73.9137047,17.6403082 73.8573916,17.5137967 C73.7621143,17.2993871 73.6900164,17.1495672 73.5640229,17.0251619 C73.4098727,16.8728145 73.2634017,16.771156 73.088774,16.6954738 C72.8990727,16.6133326 72.7140641,16.575 72.5061605,16.575 C72.2851741,16.575 72.0872249,16.6144559 71.9003676,16.6954738 C71.7123727,16.7769129 71.5471306,16.8878386 71.4081964,17.0250215 C71.2733861,17.1581324 71.1630351,17.3225552 71.0778544,17.5139372 C70.9983618,17.6929629 70.9602509,17.8899613 70.9602509,18.0993161 L70.9602509,26.2047575 C70.9602509,27.7102584 71.1041623,28.8522317 71.391985,29.6003486 L71.4015128,29.6058246" id="Fill-6" fill="#2BA7FF"></path>
                    <path id="Fill-7" fill="#000000" d="M74.088759,26.2940417 L74.088759,26.2940417 L74.088759,26.2941833 L74.088759,26.2940417"></path>
                    <path id="Fill-8" fill="#000000" d="M85.0385372,18.1341833 L85.0385372,18.1341833 C85.0385372,18.1018833 85.0433721,18.0702917 85.0463585,18.0384167 C85.0418079,18.0702917 85.0385372,18.1021667 85.0385372,18.1341833"></path>
                    <path id="Fill-9" fill="#000000" d="M66.5518987,24.123 L66.5518987,24.1227167 L66.5518987,24.123"></path>
                    <path d="M58.356203,20.4856234 C59.0198733,19.6518551 60.0626619,19.2112412 61.3793372,19.2112412 C62.6660072,19.2112412 63.6600196,19.63992 64.3330754,20.485483 C64.9647496,21.278953 65.2720545,22.4459198 65.2720545,24.0529387 L65.2720545,32.0328515 C65.2720545,32.2240931 65.3579462,32.4175813 65.4412783,32.6047509 L65.4469665,32.6182305 C65.5182112,32.7783005 65.6379477,32.9431446 65.8131441,33.1220299 C65.9411286,33.2526133 66.1150452,33.367611 66.3156963,33.4545262 C66.5002783,33.5345613 66.7022093,33.575 66.915801,33.575 C67.1389205,33.575 67.3461131,33.5345613 67.5306951,33.4545262 C67.7206808,33.3722446 67.8869184,33.2601956 68.0228663,33.1216086 C68.1363458,33.0059089 68.2001958,32.863952 68.2718671,32.6995292 L68.3114,32.6180901 C68.3790896,32.4660235 68.3860576,32.2976692 68.3850622,32.1026364 L68.4005625,32.0328515 L68.4005625,23.9452425 C68.4005625,22.478355 68.2442793,21.3775225 67.9425205,20.4811302 C67.6251191,19.6340227 67.0725108,18.8748133 66.3324765,18.2289167 C65.0529167,17.1317348 63.3946652,16.575 61.4046497,16.575 C59.4220288,16.575 57.7659104,17.1324369 56.4840753,18.2317249 C56.0977046,18.5692761 55.7559862,18.9351906 55.4707231,19.3185163 C55.2009604,19.6806396 54.9848089,20.0718283 54.8310854,20.4815515 L54.8073372,20.5735215 L54.7060873,20.5864395 C54.3738966,21.4277901 54.1800713,22.6156783 54.1800713,23.9451021 L54.1800713,23.9453829 L54.1800713,32.0506839 C54.1800713,32.0506839 54.1800713,32.0506839 54.1800713,32.0508243 C54.1800713,32.2106135 54.2641145,32.3661904 54.3410473,32.5310344 C54.3574009,32.5662779 54.385273,32.601381 54.4007734,32.6360628 C54.4868073,32.829551 54.6443704,32.9990287 54.7720704,33.1251189 C54.8982062,33.2495243 55.0759623,33.3635391 55.2861412,33.4545262 C55.467879,33.533438 55.6824662,33.575 55.9068656,33.575 C56.1217372,33.575 56.3174112,33.5356846 56.5045528,33.4545262 C56.6985203,33.3704193 56.8660377,33.2596339 57.0021278,33.1252593 C57.0958409,33.032868 57.1407776,32.9222231 57.1970908,32.7822321 C57.216004,32.7350535 57.2366237,32.6863304 57.2590921,32.6360628 C57.3156897,32.508428 57.31313,32.3656287 57.3077262,32.200223 C57.3061619,32.1509383 57.3085794,32.1010919 57.3085794,32.0506839 L57.3085794,24.0529387 C57.3085794,22.5833834 57.6683578,21.3498612 58.356203,20.4856234" id="Fill-10" fill="#2BA7FF"></path>
                </g>
            </g>
        </g>
    </g>
</svg>