<?xml version="1.0" encoding="UTF-8" standalone="no"?>
<svg width="60px" height="60px" viewBox="0 0 60 60" version="1.1" xmlns="http://www.w3.org/2000/svg" xmlns:xlink="http://www.w3.org/1999/xlink" xmlns:sketch="http://www.bohemiancoding.com/sketch/ns">
    <!-- Generator: Sketch 3.3.2 (12043) - http://www.bohemiancoding.com/sketch -->
    <title>icon-share</title>
    <desc>Created with Sketch.</desc>
    <defs></defs>
    <g id="Page-1" stroke="none" stroke-width="1" fill="none" fill-rule="evenodd" sketch:type="MSPage">
        <g id="Desktop-Copy-2" sketch:type="MSArtboardGroup" transform="translate(-486.000000, -683.000000)">
            <g id="Type-something-+-OFF-BROADWAY-+-Music-is-in-our-bloo" sketch:type="MSLayerGroup" transform="translate(379.000000, 224.000000)">
                <g id="Rectangle-171-+-Oval-48-+-An-easy-to-degest-Co-+-26-+-Rectangle-160-+-Rectangle-160-Copy" transform="translate(107.000000, 456.000000)" sketch:type="MSShapeGroup">
                    <g id="icon-share" transform="translate(0.000000, 3.000000)">
                        <rect id="Rectangle-171" fill="#2BA7FF" x="0" y="0" width="60" height="60" rx="5"></rect>
                        <path d="M25.5722997,31.3791906 C25.6653801,30.9338721 25.7142857,30.4725828 25.7142857,30 C25.7142857,29.508596 25.6614071,29.029403 25.5609687,28.5676797 L36.6522177,21.903385 C37.8552883,22.9350067 39.4253311,23.559322 41.1428571,23.559322 C44.9299526,23.559322 48,20.5239644 48,16.779661 C48,13.0353576 44.9299526,10 41.1428571,10 C37.3557617,10 34.2857143,13.0353576 34.2857143,16.779661 C34.2857143,17.233391 34.3307957,17.6767106 34.4167717,18.1054801 L34.4167717,18.1054801 L23.2648082,24.8062558 C22.0729427,23.8164719 20.5354556,23.220339 18.8571429,23.220339 C15.0700474,23.220339 12,26.2556966 12,30 C12,33.7443034 15.0700474,36.779661 18.8571429,36.779661 C20.5550866,36.779661 22.1088911,36.1695007 23.3064894,35.1588507 L34.4277003,41.8411484 C34.3346199,42.2864668 34.2857143,42.7477562 34.2857143,43.220339 C34.2857143,46.9646424 37.3557617,50 41.1428571,50 C44.9299526,50 48,46.9646424 48,43.220339 C48,39.4760356 44.9299526,36.440678 41.1428571,36.440678 C39.4449134,36.440678 37.8911089,37.0508383 36.6935106,38.0614883 L25.5722997,31.3791906 Z" id="Oval-48" fill="#FFFFFF"></path>
                    </g>
                </g>
            </g>
        </g>
    </g>
</svg>