<?xml version="1.0" encoding="UTF-8" standalone="no"?>
<svg width="100px" height="100px" viewBox="0 0 100 100" version="1.1" xmlns="http://www.w3.org/2000/svg" xmlns:xlink="http://www.w3.org/1999/xlink" xmlns:sketch="http://www.bohemiancoding.com/sketch/ns">
    <!-- Generator: Sketch 3.3.2 (12043) - http://www.bohemiancoding.com/sketch -->
    <title>icon-av</title>
    <desc>Created with Sketch.</desc>
    <defs></defs>
    <g id="navigation" stroke="none" stroke-width="1" fill="none" fill-rule="evenodd" sketch:type="MSPage">
        <g id="icon-av" sketch:type="MSLayerGroup" fill="#2BA7FF">
            <path d="M96.9366667,45.6852321 C94.6483333,44.7548523 92.0483333,45.8793249 91.13,48.1966245 L76.27125,83.0097046 L68.8533333,64.27173 C68.8533333,64.27173 68.8308333,64.3919831 68.7983333,64.3877637 C68.0295833,62.9105485 66.5008333,62.0253165 64.7375,62.0253165 L44.8941667,62.0253165 C42.36,62.0253165 40,63.942616 40,66.5088608 L40,66.4253165 C40,68.9915612 42.36,70.8860759 44.8941667,70.8860759 L61.8975,70.8860759 L72.11375,96.7012658 C72.7104167,98.2063291 74.0170833,99.2493671 75.48625,99.5122363 C75.4904167,99.5130802 75.4954167,99.5367089 75.5,99.5375527 C75.625,99.5594937 75.75125,99.5881857 75.87875,99.5991561 C75.9245833,99.6037975 75.9704167,99.6118143 76.01625,99.614346 C76.10125,99.6194093 76.1858333,99.6257384 76.27125,99.6253165 C76.3566667,99.6257384 76.44125,99.6236287 76.5258333,99.6189873 C76.5716667,99.6160338 76.6175,99.614346 76.6633333,99.6101266 C76.7908333,99.5991561 76.9170833,99.5822785 77.0425,99.5603376 C77.0466667,99.5594937 77.0516667,99.5590717 77.05625,99.5582278 C78.525,99.2957806 79.8320833,98.2991561 80.4283333,96.7940928 L99.4166667,51.5649789 C100.335,49.2481013 99.225,46.6151899 96.9366667,45.6852321" id="Fill-1" sketch:type="MSShapeGroup"></path>
            <path d="M56.6679167,56.1181435 L66.2895833,56.1181435 L44.71125,2.83375527 C44.1145833,1.32869198 42.8075,0.407172996 41.33875,0.144725738 C41.3341667,0.143881857 41.3295833,0.181012658 41.325,0.180168776 C41.1995833,0.158227848 41.0733333,0.159915612 40.9458333,0.148523207 C40.9,0.144303797 40.8545833,0.151476793 40.8083333,0.148945148 C40.72375,0.143881857 40.6391667,0.145147679 40.55375,0.14556962 C40.4683333,0.145147679 40.38375,0.151054852 40.29875,0.155696203 C40.2529167,0.158649789 40.2075,0.162025316 40.16125,0.166244726 C40.03375,0.177637131 39.9079167,0.19535865 39.7825,0.217299578 C39.7779167,0.21814346 39.7733333,0.218987342 39.76875,0.219831224 C38.2995833,0.482278481 36.9929167,1.47932489 36.39625,2.98438819 L0.541666667,93.4253165 C-0.376666667,95.742616 0.733333333,98.3751055 3.02166667,99.3054852 C5.31,100.235443 7.90958333,99.1113924 8.82833333,96.7940928 L40.55375,16.6177215 L56.6679167,56.1181435" id="Fill-2" sketch:type="MSShapeGroup"></path>
        </g>
    </g>
</svg>